<?xml version="1.0" standalone="no"?>
<!DOCTYPE svg PUBLIC "-//W3C//DTD SVG 20010904//EN"
 "http://www.w3.org/TR/2001/REC-SVG-20010904/DTD/svg10.dtd">
<svg version="1.0" xmlns="http://www.w3.org/2000/svg"
 width="82.000000pt" height="82.000000pt" viewBox="0 0 82.000000 82.000000"
 preserveAspectRatio="xMidYMid meet">

<g transform="translate(0.000000,82.000000) scale(0.100000,-0.100000)"
fill="#000000" stroke="none">
<path d="M344 810 c-123 -18 -248 -113 -302 -227 -24 -52 -27 -69 -27 -168 0
-104 2 -114 32 -176 41 -82 111 -150 201 -192 61 -29 76 -32 162 -32 86 0 101
3 162 32 90 42 160 110 201 192 30 62 32 72 32 176 0 100 -3 115 -27 165 -83
167 -253 258 -434 230z m230 -48 c194 -91 277 -318 186 -510 -26 -56 -93 -142
-110 -142 -4 0 -10 20 -12 45 -7 61 -30 91 -92 122 l-53 26 21 22 c12 13 32
49 45 80 19 46 22 61 13 76 -7 10 -12 32 -12 48 0 93 -83 143 -196 120 -68
-13 -95 -43 -102 -109 -2 -27 -8 -50 -13 -50 -25 0 17 -126 57 -171 13 -15 9
-20 -40 -48 -61 -34 -86 -71 -86 -126 0 -19 -4 -35 -9 -35 -12 0 -71 67 -98
110 -86 141 -60 344 60 464 83 82 175 118 294 112 65 -3 95 -10 147 -34z m-89
-136 c41 -17 55 -42 55 -95 0 -22 5 -43 10 -46 13 -8 13 -52 1 -60 -5 -3 -12
-18 -16 -35 -3 -16 -22 -43 -41 -60 -29 -25 -43 -30 -84 -30 -41 0 -55 5 -85
31 -19 17 -38 43 -42 58 -3 14 -13 36 -21 49 -13 20 -13 24 2 41 9 9 16 34 16
55 0 20 5 46 11 57 23 45 126 63 194 35z m61 -369 c53 -27 68 -49 77 -118 7
-46 1 -54 -58 -81 -42 -19 -67 -23 -155 -23 -94 0 -111 3 -164 28 l-59 27 7
52 c10 71 19 84 82 116 48 24 66 28 137 27 67 -1 91 -6 133 -28z"/>
</g>
</svg>
