<svg width="174" height="21" viewBox="0 0 174 21" fill="none" xmlns="http://www.w3.org/2000/svg">
<path d="M14.43 7.312C14.014 6.54933 13.442 5.96867 12.714 5.57C11.986 5.17133 11.1367 4.972 10.166 4.972C9.09133 4.972 8.138 5.21467 7.306 5.7C6.474 6.18533 5.824 6.87867 5.356 7.78C4.888 8.68133 4.654 9.72133 4.654 10.9C4.654 12.1133 4.888 13.1707 5.356 14.072C5.84133 14.9733 6.50867 15.6667 7.358 16.152C8.20733 16.6373 9.19533 16.88 10.322 16.88C11.7087 16.88 12.844 16.516 13.728 15.788C14.612 15.0427 15.1927 14.0113 15.47 12.694H9.23V9.912H19.058V13.084C18.8153 14.3493 18.2953 15.5193 17.498 16.594C16.7007 17.6687 15.6693 18.5353 14.404 19.194C13.156 19.8353 11.752 20.156 10.192 20.156C8.44133 20.156 6.85533 19.766 5.434 18.986C4.03 18.1887 2.92067 17.088 2.106 15.684C1.30867 14.28 0.91 12.6853 0.91 10.9C0.91 9.11467 1.30867 7.52 2.106 6.116C2.92067 4.69467 4.03 3.594 5.434 2.814C6.85533 2.01667 8.43267 1.618 10.166 1.618C12.2113 1.618 13.988 2.12067 15.496 3.126C17.004 4.114 18.044 5.50933 18.616 7.312H14.43ZM24.791 7.832C25.259 7.06933 25.8657 6.47133 26.611 6.038C27.3737 5.60467 28.2404 5.388 29.211 5.388V9.21H28.249C27.105 9.21 26.2384 9.47867 25.649 10.016C25.077 10.5533 24.791 11.4893 24.791 12.824V20H21.151V5.596H24.791V7.832ZM44.4528 12.486C44.4528 13.006 44.4181 13.474 44.3488 13.89H33.8187C33.9054 14.93 34.2694 15.7447 34.9107 16.334C35.5521 16.9233 36.3407 17.218 37.2767 17.218C38.6287 17.218 39.5907 16.6373 40.1628 15.476H44.0888C43.6727 16.8627 42.8754 18.0067 41.6967 18.908C40.5181 19.792 39.0707 20.234 37.3547 20.234C35.9681 20.234 34.7201 19.9307 33.6107 19.324C32.5187 18.7 31.6607 17.8247 31.0367 16.698C30.4301 15.5713 30.1267 14.2713 30.1267 12.798C30.1267 11.3073 30.4301 9.99867 31.0367 8.872C31.6434 7.74533 32.4927 6.87867 33.5847 6.272C34.6767 5.66533 35.9334 5.362 37.3547 5.362C38.7241 5.362 39.9461 5.65667 41.0207 6.246C42.1128 6.83533 42.9534 7.676 43.5427 8.768C44.1494 9.84267 44.4528 11.082 44.4528 12.486ZM40.6827 11.446C40.6654 10.51 40.3274 9.76467 39.6687 9.21C39.0101 8.638 38.2041 8.352 37.2507 8.352C36.3494 8.352 35.5867 8.62933 34.9627 9.184C34.3561 9.72133 33.9834 10.4753 33.8447 11.446H40.6827ZM59.8996 12.486C59.8996 13.006 59.865 13.474 59.7956 13.89H49.2656C49.3523 14.93 49.7163 15.7447 50.3576 16.334C50.999 16.9233 51.7876 17.218 52.7236 17.218C54.0756 17.218 55.0376 16.6373 55.6096 15.476H59.5356C59.1196 16.8627 58.3223 18.0067 57.1436 18.908C55.965 19.792 54.5176 20.234 52.8016 20.234C51.415 20.234 50.167 19.9307 49.0576 19.324C47.9656 18.7 47.1076 17.8247 46.4836 16.698C45.877 15.5713 45.5736 14.2713 45.5736 12.798C45.5736 11.3073 45.877 9.99867 46.4836 8.872C47.0903 7.74533 47.9396 6.87867 49.0316 6.272C50.1236 5.66533 51.3803 5.362 52.8016 5.362C54.171 5.362 55.393 5.65667 56.4676 6.246C57.5596 6.83533 58.4003 7.676 58.9896 8.768C59.5963 9.84267 59.8996 11.082 59.8996 12.486ZM56.1296 11.446C56.1123 10.51 55.7743 9.76467 55.1156 9.21C54.457 8.638 53.651 8.352 52.6976 8.352C51.7963 8.352 51.0336 8.62933 50.4096 9.184C49.803 9.72133 49.4303 10.4753 49.2916 11.446H56.1296ZM69.9385 5.388C71.6545 5.388 73.0412 5.934 74.0985 7.026C75.1558 8.10067 75.6845 9.60867 75.6845 11.55V20H72.0445V12.044C72.0445 10.9 71.7585 10.0247 71.1865 9.418C70.6145 8.794 69.8345 8.482 68.8465 8.482C67.8412 8.482 67.0438 8.794 66.4545 9.418C65.8825 10.0247 65.5965 10.9 65.5965 12.044V20H61.9565V5.596H65.5965V7.39C66.0818 6.766 66.6972 6.28067 67.4425 5.934C68.2052 5.57 69.0372 5.388 69.9385 5.388Z" fill="#50806B"/>
<path d="M96.4913 1.852V4.79H91.6553V20H88.0153V4.79H83.1793V1.852H96.4913ZM106.659 5.388C107.751 5.388 108.722 5.63067 109.571 6.116C110.42 6.584 111.079 7.286 111.547 8.222C112.032 9.14067 112.275 10.25 112.275 11.55V20H108.635V12.044C108.635 10.9 108.349 10.0247 107.777 9.418C107.205 8.794 106.425 8.482 105.437 8.482C104.432 8.482 103.634 8.794 103.045 9.418C102.473 10.0247 102.187 10.9 102.187 12.044V20H98.5471V0.76H102.187V7.39C102.655 6.766 103.279 6.28067 104.059 5.934C104.839 5.57 105.706 5.388 106.659 5.388ZM128.735 5.596V20H125.069V18.18C124.601 18.804 123.985 19.298 123.223 19.662C122.477 20.0087 121.663 20.182 120.779 20.182C119.652 20.182 118.655 19.948 117.789 19.48C116.922 18.9947 116.237 18.2927 115.735 17.374C115.249 16.438 115.007 15.3287 115.007 14.046V5.596H118.647V13.526C118.647 14.67 118.933 15.554 119.505 16.178C120.077 16.7847 120.857 17.088 121.845 17.088C122.85 17.088 123.639 16.7847 124.211 16.178C124.783 15.554 125.069 14.67 125.069 13.526V5.596H128.735ZM149.614 5.388C151.382 5.388 152.803 5.934 153.878 7.026C154.97 8.10067 155.516 9.60867 155.516 11.55V20H151.876V12.044C151.876 10.9173 151.59 10.0593 151.018 9.47C150.446 8.86333 149.666 8.56 148.678 8.56C147.69 8.56 146.901 8.86333 146.312 9.47C145.74 10.0593 145.454 10.9173 145.454 12.044V20H141.814V12.044C141.814 10.9173 141.528 10.0593 140.956 9.47C140.384 8.86333 139.604 8.56 138.616 8.56C137.611 8.56 136.813 8.86333 136.224 9.47C135.652 10.0593 135.366 10.9173 135.366 12.044V20H131.726V5.596H135.366V7.338C135.834 6.73133 136.432 6.25467 137.16 5.908C137.905 5.56133 138.72 5.388 139.604 5.388C140.731 5.388 141.736 5.63067 142.62 6.116C143.504 6.584 144.189 7.26 144.674 8.144C145.142 7.312 145.818 6.64467 146.702 6.142C147.603 5.63933 148.574 5.388 149.614 5.388ZM162.01 7.702C162.478 7.00867 163.12 6.44533 163.934 6.012C164.766 5.57867 165.711 5.362 166.768 5.362C167.999 5.362 169.108 5.66533 170.096 6.272C171.102 6.87867 171.89 7.74533 172.462 8.872C173.052 9.98133 173.346 11.2727 173.346 12.746C173.346 14.2193 173.052 15.528 172.462 16.672C171.89 17.7987 171.102 18.674 170.096 19.298C169.108 19.922 167.999 20.234 166.768 20.234C165.694 20.234 164.749 20.026 163.934 19.61C163.137 19.1767 162.496 18.622 162.01 17.946V20H158.37V0.76H162.01V7.702ZM169.628 12.746C169.628 11.8793 169.446 11.134 169.082 10.51C168.736 9.86867 168.268 9.38333 167.678 9.054C167.106 8.72467 166.482 8.56 165.806 8.56C165.148 8.56 164.524 8.73333 163.934 9.08C163.362 9.40933 162.894 9.89467 162.53 10.536C162.184 11.1773 162.01 11.9313 162.01 12.798C162.01 13.6647 162.184 14.4187 162.53 15.06C162.894 15.7013 163.362 16.1953 163.934 16.542C164.524 16.8713 165.148 17.036 165.806 17.036C166.482 17.036 167.106 16.8627 167.678 16.516C168.268 16.1693 168.736 15.6753 169.082 15.034C169.446 14.3927 169.628 13.63 169.628 12.746Z" fill="black"/>
</svg>
